# xmcd
#
# Track frame offsets:
#	150
#	6585
#	15091
#	46076
#	61366
#	74984
#	86886
#	99104
#	108301
#	112924
#	124198
#	133578
#	151409
#	169713
#	181380
#	190922
#	211018
#	226948
#	231533
#	236187
#
# Disc length: 3213 seconds
#
# Revision: 1
# Processed by: cddbd v1.5.1PL2 Copyright (c) Steve Scherf et al.
# Submitted via: EasyCDDAExtractor 9.0.0.1
#
DISCID=0d0c8b14
DTITLE=Alice Cooper - Sports Arena San Diego 17-06-79
DYEAR=1979
DGENRE=Hard Rock
TTITLE0=Intro
TTITLE1=Commercials
TTITLE2=From The Inside
TTITLE3=Nurse Rozetta
TTITLE4=Quiet Room
TTITLE5=I Never Cry
TTITLE6=Welcome To My Nightmare
TTITLE7=Billion Dollar Babies
TTITLE8=Commercials
TTITLE9=Only Women Bleed
TTITLE10=No More Mr Nice Guy
TTITLE11=Eighteen
TTITLE12=I Wish I Was Born In Beverly Hills
TTITLE13=Go To Hell
TTITLE14=Medley
TTITLE15=How You Gonna See Me Now
TTITLE16=School's Out 
TTITLE17=Commercials
TTITLE18=Outro
TTITLE19=Promos
EXTD=
EXTT0=
EXTT1=
EXTT2=
EXTT3=
EXTT4=
EXTT5=
EXTT6=
EXTT7=
EXTT8=
EXTT9=
EXTT10=
EXTT11=
EXTT12=
EXTT13=
EXTT14=
EXTT15=
EXTT16=
EXTT17=
EXTT18=
EXTT19=
PLAYORDER=
